# xmcd CD database file
#
# Track frame offsets:
#	150
#	22343
#	42892
#	65095
#	78699
#	100813
#	128327
#	148641
#	179745
#	210427
#	217865
#
# Disc length: 3219 seconds
#
# Revision: 0
# Processed by: cddbd v1.5.2PL0 Copyright (c) Steve Scherf et al.
# Submitted via: CDex 1.51
#
DISCID=9f0c910b
DTITLE=JP Gallis - The Soong Seeker
DYEAR=2005
DGENRE=Jazz
TTITLE0=Sailing
TTITLE1=How cani i be sure
TTITLE2=Just the way you are
TTITLE3=Mr. Porcelli
TTITLE4=Softly as a morning sunrise
TTITLE5=Secret love
TTITLE6=I did not know what time it was
TTITLE7=Round midnight
TTITLE8=Just for you
TTITLE9=Nuage 1
TTITLE10=Nuage 2
EXTD=YEAR: 2005
EXTT0=
EXTT1=
EXTT2=
EXTT3=
EXTT4=
EXTT5=
EXTT6=
EXTT7=
EXTT8=
EXTT9=
EXTT10=
PLAYORDER=
